<svg width="25" height="25" viewBox="0 0 25 25" fill="none" xmlns="http://www.w3.org/2000/svg">
<path d="M17.6666 4.33301C17.4014 4.33301 17.1471 4.22765 16.9595 4.04011C16.772 3.85258 16.6666 3.59822 16.6666 3.33301C16.6666 3.06779 16.772 2.81344 16.9595 2.6259C17.1471 2.43836 17.4014 2.33301 17.6666 2.33301H21.6666C21.9318 2.33301 22.1862 2.43836 22.3737 2.6259C22.5613 2.81344 22.6666 3.06779 22.6666 3.33301V7.33301C22.6666 7.59822 22.5613 7.85258 22.3737 8.04011C22.1862 8.22765 21.9318 8.33301 21.6666 8.33301C21.4014 8.33301 21.1471 8.22765 20.9595 8.04011C20.772 7.85258 20.6666 7.59822 20.6666 7.33301V5.74701L14.8736 11.54C14.6861 11.7275 14.4318 11.8328 14.1666 11.8328C13.9015 11.8328 13.6472 11.7275 13.4596 11.54L10.6666 8.74701L5.37363 14.04C5.18502 14.2222 4.93242 14.323 4.67022 14.3207C4.40803 14.3184 4.15722 14.2132 3.97181 14.0278C3.7864 13.8424 3.68123 13.5916 3.67895 13.3294C3.67667 13.0672 3.77747 12.8146 3.95963 12.626L9.95963 6.62601C10.1472 6.43854 10.4015 6.33322 10.6666 6.33322C10.9318 6.33322 11.1861 6.43854 11.3736 6.62601L14.1666 9.41901L19.2526 4.33301H17.6666ZM5.66663 18.333V21.333C5.66663 21.5982 5.56127 21.8526 5.37373 22.0401C5.1862 22.2277 4.93184 22.333 4.66663 22.333C4.40141 22.333 4.14706 22.2277 3.95952 22.0401C3.77198 21.8526 3.66663 21.5982 3.66663 21.333V18.333C3.66663 18.0678 3.77198 17.8134 3.95952 17.6259C4.14706 17.4384 4.40141 17.333 4.66663 17.333C4.93184 17.333 5.1862 17.4384 5.37373 17.6259C5.56127 17.8134 5.66663 18.0678 5.66663 18.333ZM10.6666 14.333C10.6666 14.0678 10.5613 13.8134 10.3737 13.6259C10.1862 13.4384 9.93184 13.333 9.66663 13.333C9.40141 13.333 9.14706 13.4384 8.95952 13.6259C8.77198 13.8134 8.66663 14.0678 8.66663 14.333V21.333C8.66663 21.5982 8.77198 21.8526 8.95952 22.0401C9.14706 22.2277 9.40141 22.333 9.66663 22.333C9.93184 22.333 10.1862 22.2277 10.3737 22.0401C10.5613 21.8526 10.6666 21.5982 10.6666 21.333V14.333ZM14.6666 15.333C14.9318 15.333 15.1862 15.4384 15.3737 15.6259C15.5613 15.8134 15.6666 16.0678 15.6666 16.333V21.333C15.6666 21.5982 15.5613 21.8526 15.3737 22.0401C15.1862 22.2277 14.9318 22.333 14.6666 22.333C14.4014 22.333 14.1471 22.2277 13.9595 22.0401C13.772 21.8526 13.6666 21.5982 13.6666 21.333V16.333C13.6666 16.0678 13.772 15.8134 13.9595 15.6259C14.1471 15.4384 14.4014 15.333 14.6666 15.333ZM20.6666 11.333C20.6666 11.0678 20.5613 10.8134 20.3737 10.6259C20.1862 10.4384 19.9318 10.333 19.6666 10.333C19.4014 10.333 19.1471 10.4384 18.9595 10.6259C18.772 10.8134 18.6666 11.0678 18.6666 11.333V21.333C18.6666 21.5982 18.772 21.8526 18.9595 22.0401C19.1471 22.2277 19.4014 22.333 19.6666 22.333C19.9318 22.333 20.1862 22.2277 20.3737 22.0401C20.5613 21.8526 20.6666 21.5982 20.6666 21.333V11.333Z" fill="white"/>
</svg>
