<svg width="40" height="41" viewBox="0 0 40 41" fill="none" xmlns="http://www.w3.org/2000/svg">
<path d="M32.3612 11.709C34.0782 13.5318 35.0002 15.5775 35.0002 18.8936C35.0002 24.726 30.906 29.9546 24.9492 32.5388L23.4614 30.2428C29.0202 27.2351 30.1065 23.334 30.5409 20.8741C29.6459 21.337 28.4742 21.4996 27.3257 21.3933C24.3184 21.1145 21.9482 18.6456 21.9482 15.5775C21.9482 12.3558 24.5599 9.74414 27.7815 9.74414C29.57 9.74414 31.2802 10.5616 32.3612 11.709ZM15.6945 11.709C17.4115 13.5318 18.3335 15.5775 18.3335 18.8936C18.3335 24.726 14.2394 29.9546 8.28255 32.5388L6.79473 30.2428C12.3535 27.2351 13.4399 23.334 13.8741 20.8741C12.9791 21.337 11.8076 21.4996 10.659 21.3933C7.65173 21.1145 5.28162 18.6456 5.28162 15.5775C5.28162 12.3558 7.89328 9.74414 11.1149 9.74414C12.9034 9.74414 14.6136 10.5616 15.6945 11.709Z" fill="white"/>
</svg>
