<svg width="33" height="33" viewBox="0 0 33 33" fill="none" xmlns="http://www.w3.org/2000/svg">
<g id="Component 2">
<path id="Vector" d="M6.33337 21.333V20.333H4.33337V21.333C4.33337 23.1895 5.07087 24.97 6.38363 26.2828C7.69638 27.5955 9.47686 28.333 11.3334 28.333H14.3334V26.333H11.3334C10.0073 26.333 8.73552 25.8062 7.79784 24.8685C6.86016 23.9309 6.33337 22.6591 6.33337 21.333ZM24.3334 11.333V12.333H26.3334V11.333C26.3334 9.47649 25.5959 7.69602 24.2831 6.38326C22.9704 5.07051 21.1899 4.33301 19.3334 4.33301H16.3334V6.33301H19.3334C19.99 6.33301 20.6402 6.46234 21.2468 6.71361C21.8534 6.96489 22.4046 7.33318 22.8689 7.79748C23.3332 8.26177 23.7015 8.81296 23.9528 9.41959C24.204 10.0262 24.3334 10.6764 24.3334 11.333ZM11.3334 11.333H5.33337C4.53772 11.333 3.77466 11.6491 3.21205 12.2117C2.64944 12.7743 2.33337 13.5374 2.33337 14.333V16.333H4.33337V14.333C4.33337 14.0678 4.43873 13.8134 4.62627 13.6259C4.8138 13.4384 5.06816 13.333 5.33337 13.333H11.3334C11.5986 13.333 11.8529 13.4384 12.0405 13.6259C12.228 13.8134 12.3334 14.0678 12.3334 14.333V16.333H14.3334V14.333C14.3334 13.5374 14.0173 12.7743 13.4547 12.2117C12.8921 11.6491 12.129 11.333 11.3334 11.333ZM8.33337 10.333C9.1245 10.333 9.89786 10.0984 10.5557 9.65889C11.2135 9.21936 11.7261 8.59465 12.0289 7.86374C12.3316 7.13284 12.4109 6.32857 12.2565 5.55265C12.1022 4.77672 11.7212 4.06399 11.1618 3.50458C10.6024 2.94517 9.88966 2.56421 9.11374 2.40987C8.33781 2.25553 7.53355 2.33474 6.80264 2.63749C6.07174 2.94024 5.44702 3.45293 5.0075 4.11073C4.56797 4.76853 4.33337 5.54188 4.33337 6.33301C4.33337 7.39388 4.7548 8.41129 5.50495 9.16144C6.25509 9.91158 7.27251 10.333 8.33337 10.333ZM8.33337 4.33301C8.72894 4.33301 9.11562 4.45031 9.44451 4.67007C9.77341 4.88983 10.0298 5.20219 10.1811 5.56764C10.3325 5.93309 10.3721 6.33523 10.2949 6.72319C10.2178 7.11115 10.0273 7.46752 9.74759 7.74722C9.46788 8.02693 9.11152 8.21741 8.72355 8.29458C8.33559 8.37175 7.93346 8.33214 7.56801 8.18077C7.20255 8.02939 6.8902 7.77305 6.67043 7.44415C6.45067 7.11525 6.33337 6.72857 6.33337 6.33301C6.33337 5.80258 6.54409 5.29387 6.91916 4.9188C7.29423 4.54372 7.80294 4.33301 8.33337 4.33301ZM27.3334 25.333H21.3334C20.5377 25.333 19.7747 25.6491 19.2121 26.2117C18.6494 26.7743 18.3334 27.5374 18.3334 28.333V30.333H20.3334V28.333C20.3334 28.0678 20.4387 27.8134 20.6263 27.6259C20.8138 27.4384 21.0682 27.333 21.3334 27.333H27.3334C27.5986 27.333 27.8529 27.4384 28.0405 27.6259C28.228 27.8134 28.3334 28.0678 28.3334 28.333V30.333H30.3334V28.333C30.3334 27.5374 30.0173 26.7743 29.4547 26.2117C28.8921 25.6491 28.129 25.333 27.3334 25.333ZM20.3334 20.333C20.3334 21.1241 20.568 21.8975 21.0075 22.5553C21.447 23.2131 22.0717 23.7258 22.8026 24.0285C23.5335 24.3313 24.3378 24.4105 25.1137 24.2562C25.8897 24.1018 26.6024 23.7208 27.1618 23.1614C27.7212 22.602 28.1022 21.8893 28.2565 21.1134C28.4109 20.3374 28.3316 19.5332 28.0289 18.8023C27.7261 18.0714 27.2135 17.4467 26.5557 17.0071C25.8979 16.5676 25.1245 16.333 24.3334 16.333C23.2725 16.333 22.2551 16.7544 21.5049 17.5046C20.7548 18.2547 20.3334 19.2721 20.3334 20.333ZM26.3334 20.333C26.3334 20.7286 26.2161 21.1153 25.9963 21.4442C25.7766 21.773 25.4642 22.0294 25.0987 22.1808C24.7333 22.3321 24.3312 22.3718 23.9432 22.2946C23.5552 22.2174 23.1989 22.0269 22.9192 21.7472C22.6395 21.4675 22.449 21.1112 22.3718 20.7232C22.2946 20.3352 22.3342 19.9331 22.4856 19.5676C22.637 19.2022 22.8933 18.8898 23.2222 18.6701C23.5511 18.4503 23.9378 18.333 24.3334 18.333C24.8638 18.333 25.3725 18.5437 25.7476 18.9188C26.1227 19.2939 26.3334 19.8026 26.3334 20.333Z" fill="white"/>
</g>
</svg>
