<svg width="24" height="25" viewBox="0 0 24 25" fill="none" xmlns="http://www.w3.org/2000/svg">
<g id="Component 2">
<path id="Vector" d="M18.364 6.21413C17.5283 5.37839 16.5361 4.71545 15.4442 4.26316C14.3522 3.81086 13.1819 3.57807 12 3.57807C10.8181 3.57807 9.64777 3.81086 8.55583 4.26316C7.46389 4.71545 6.47173 5.37839 5.636 6.21412C4.80027 7.04986 4.13733 8.04202 3.68503 9.13395C3.23274 10.2259 2.99994 11.3962 2.99994 12.5781C2.99994 13.76 3.23274 14.9304 3.68503 16.0223C4.13733 17.1142 4.80027 18.1064 5.636 18.9421C7.32384 20.63 9.61304 21.5782 12 21.5782C14.387 21.5782 16.6762 20.63 18.364 18.9421C20.0518 17.2543 21.0001 14.9651 21.0001 12.5781C21.0001 10.1912 20.0518 7.90196 18.364 6.21413ZM4.222 4.80013C8.518 0.504125 15.482 0.504125 19.778 4.80013C24.074 9.09613 24.074 16.0601 19.778 20.3561C15.482 24.6521 8.518 24.6521 4.222 20.3561C-0.0739999 16.0601 -0.0739999 9.09613 4.222 4.80013ZM17.442 7.13713L12.477 20.0471L10.377 14.2031L4.532 12.1031L17.442 7.13713ZM10.268 12.0391L11.94 12.6391L12.54 14.3111L13.96 10.6191L10.268 12.0391Z" fill="white"/>
</g>
</svg>
