<svg width="24" height="25" viewBox="0 0 24 25" fill="none" xmlns="http://www.w3.org/2000/svg">
<path d="M6.09 15.5781C5.70066 14.6981 5.49969 13.7464 5.5 12.7841C5.5 9.07913 8.41 6.07812 12 6.07812C15.59 6.07812 18.5 9.08013 18.5 12.7841C18.5003 13.7464 18.2993 14.6981 17.91 15.5781M12 2.57812V3.57813M22 12.5781H21M3 12.5781H2M19.07 5.50712L18.363 6.21413M5.637 6.21513L4.93 5.50812M14.517 19.8851C15.527 19.5581 15.933 18.6331 16.047 17.7031C16.081 17.4251 15.852 17.1941 15.572 17.1941H8.477C8.40862 17.193 8.3408 17.2065 8.278 17.2336C8.21521 17.2606 8.15888 17.3008 8.11275 17.3512C8.06662 17.4017 8.03173 17.4614 8.0104 17.5264C7.98906 17.5914 7.98177 17.6601 7.989 17.7281C8.101 18.6561 8.383 19.3341 9.453 19.8841M14.517 19.8851L9.453 19.8841M14.517 19.8851C14.396 21.8301 13.834 22.6001 12.007 22.5781C10.053 22.6141 9.603 21.6611 9.453 19.8841" stroke="white" stroke-width="1.5" stroke-linecap="round" stroke-linejoin="round"/>
</svg>
