<svg width="25" height="25" viewBox="0 0 25 25" fill="none" xmlns="http://www.w3.org/2000/svg">
<g clip-path="url(#clip0_55_92)">
<path d="M11.1985 6.92193C11.0807 6.58722 10.8619 6.29731 10.5724 6.0922C10.2828 5.88709 9.93678 5.77688 9.58194 5.77679H8.25337C7.87647 5.77784 7.51321 5.9179 7.23316 6.17014C6.9531 6.42237 6.77594 6.76905 6.7356 7.14379C6.69526 7.51852 6.79458 7.89497 7.01454 8.20103C7.23449 8.50709 7.55962 8.72125 7.92766 8.8025L9.94708 9.24479C10.3603 9.33497 10.7256 9.57473 10.9727 9.91795C11.2198 10.2612 11.3314 10.6836 11.2859 11.1041C11.2403 11.5246 11.041 11.9134 10.7261 12.1958C10.4113 12.4782 10.0032 12.6343 9.58023 12.6339H8.4368C8.08238 12.6341 7.73662 12.5244 7.44712 12.3199C7.15762 12.1155 6.9386 11.8263 6.82023 11.4922M9.01108 5.77679V4.0625M9.01108 14.3482V12.6339M12.2802 23.7202V14.7202C12.2802 14.1519 12.506 13.6068 12.9079 13.205C13.3097 12.8031 13.8548 12.5774 14.4231 12.5774C14.9914 12.5774 15.5364 12.8031 15.9383 13.205C16.3402 13.6068 16.5659 14.1519 16.5659 14.7202V19.4345H19.9945C20.9038 19.4345 21.7759 19.7957 22.4189 20.4387C23.0619 21.0817 23.4231 21.9538 23.4231 22.8631V23.7202" stroke="white" stroke-linecap="round" stroke-linejoin="round"/>
<path d="M9.01283 16.9743C7.43119 16.9741 5.88731 16.491 4.5876 15.5897C3.28789 14.6884 2.29431 13.4119 1.73968 11.9306C1.18506 10.4494 1.09583 8.83422 1.48393 7.30093C1.87203 5.76765 2.71896 4.38938 3.91148 3.35041C5.10401 2.31143 6.58529 1.66127 8.15728 1.48684C9.72927 1.31241 11.317 1.62204 12.7083 2.37431C14.0996 3.12659 15.2281 4.28567 15.9429 5.69658C16.6576 7.10749 16.9247 8.70298 16.7083 10.2697" stroke="white" stroke-linecap="round"/>
</g>
<defs>
<clipPath id="clip0_55_92">
<rect width="24" height="24" fill="white" transform="translate(0.333374 0.578125)"/>
</clipPath>
</defs>
</svg>
