<svg width="25" height="25" viewBox="0 0 25 25" fill="none" xmlns="http://www.w3.org/2000/svg">
<path d="M21.5434 16.4692C20.9072 17.9737 19.9122 19.2994 18.6453 20.3305C17.3784 21.3616 15.8782 22.0666 14.2758 22.384C12.6735 22.7013 11.0178 22.6213 9.45355 22.151C7.88928 21.6806 6.46403 20.8342 5.30243 19.6858C4.14082 18.5374 3.27822 17.1219 2.79005 15.5631C2.30187 14.0043 2.20297 12.3497 2.50201 10.7438C2.80104 9.13796 3.48891 7.62981 4.50546 6.35121C5.52201 5.07261 6.83629 4.0625 8.33341 3.40918" stroke="white" stroke-width="2.25" stroke-linecap="round" stroke-linejoin="round"/>
<path d="M22.3334 12.5791C22.3334 11.2659 22.0747 9.96552 21.5722 8.75226C21.0696 7.53901 20.333 6.43662 19.4044 5.50803C18.4759 4.57945 17.3735 3.84285 16.1602 3.34031C14.947 2.83776 13.6466 2.5791 12.3334 2.5791V12.5791H22.3334Z" stroke="white" stroke-width="2.25" stroke-linecap="round" stroke-linejoin="round"/>
</svg>
